<?xml version="1.0" encoding="UTF-8" standalone="no"?>
<!-- Created with Inkscape (http://www.inkscape.org/) -->

<svg
   width="156.59286mm"
   height="149.9312mm"
   viewBox="0 0 156.59286 149.9312"
   version="1.1"
   id="svg1"
   xml:space="preserve"
   inkscape:version="1.3.2 (091e20e, 2023-11-25, custom)"
   sodipodi:docname="candidate_chess_logo.svg"
   xmlns:inkscape="http://www.inkscape.org/namespaces/inkscape"
   xmlns:sodipodi="http://sodipodi.sourceforge.net/DTD/sodipodi-0.dtd"
   xmlns="http://www.w3.org/2000/svg"
   xmlns:svg="http://www.w3.org/2000/svg"><sodipodi:namedview
     id="namedview1"
     pagecolor="#ffffff"
     bordercolor="#000000"
     borderopacity="0.25"
     inkscape:showpageshadow="2"
     inkscape:pageopacity="0.0"
     inkscape:pagecheckerboard="true"
     inkscape:deskcolor="#d1d1d1"
     inkscape:document-units="mm"
     inkscape:zoom="0.72426347"
     inkscape:cx="251.98013"
     inkscape:cy="298.23401"
     inkscape:window-width="1350"
     inkscape:window-height="1000"
     inkscape:window-x="569"
     inkscape:window-y="2"
     inkscape:window-maximized="0"
     inkscape:current-layer="g1" /><defs
     id="defs1" /><g
     inkscape:label="Layer 1"
     inkscape:groupmode="layer"
     id="layer1"
     transform="translate(-20.343165,-29.380484)"><g
       id="g2407"
       transform="matrix(0.26458333,0,0,0.26458333,-70.535438,-14.609172)"
       style="stroke-width:10.3937;stroke-dasharray:none"><path
         id="path2558"
         style="fill:#000000;stroke-width:10.3937;stroke-dasharray:none"
         d="m 99.308,458.99 c -6.102,-2.46 -8.646,-14.33 -8.673,-40.49 -0.022,-21.65 1.499,-31.06 8.339,-51.61 12.976,-38.99 41.396,-72.77 76.586,-91.04 l 10.06,-5.22 -5.06,-4.12 c -10.79,-8.79 -20.39,-23.95 -24.75,-39.06 -1.86,-6.47 -2.28,-10.28 -2.23,-20.45 0.06,-10.86 0.43,-13.61 2.84,-21 7.54,-23.07 20.75,-38.57 41.58,-48.82 l 9.5,-4.68 -4.23,-6.3 c -8.46,-12.63 -11.1,-27.796 -7.28,-41.935 4.24,-15.733 12.73,-26.072 27.3,-33.251 18.81,-9.274 38.61,-9.274 57.42,0 14.57,7.179 23.06,17.518 27.3,33.251 3.82,14.139 1.18,29.305 -7.28,41.935 l -4.23,6.3 9.5,4.68 c 20.83,10.25 34.04,25.75 41.58,48.82 2.41,7.39 2.78,10.14 2.84,21 0.05,10.17 -0.37,13.98 -2.23,20.45 -4.36,15.11 -13.96,30.27 -24.75,39.06 l -5.06,4.12 10.06,5.22 c 35.19,18.27 63.61,52.05 76.59,91.04 6.84,20.55 8.36,29.96 8.33,51.61 -0.02,26.65 -2.56,38.11 -8.98,40.55 -3.23,1.22 -302.02,1.17 -305.07,-0.06 z"
         transform="translate(387.21,272.99)" /><path
         id="path2384"
         style="fill:#ffffff;stroke-width:10.3937;stroke-dasharray:none"
         d="m 394.73,439.25 c 0.42,-1.51 0.74,-11.07 0.7,-21.25 -0.07,-20.62 -1.75,-31.25 -7.55,-47.69 -14.2,-40.25 -47.26,-73.64 -86.88,-87.76 -9.96,-3.54 -11.78,-4.85 -12.57,-9.05 -0.97,-5.21 1.26,-7.7 11.27,-12.52 31.24,-15.08 42.62,-53.88 24.81,-84.6 -4.83,-8.33 -16.11,-18.59 -25.64,-23.31 -7.96,-3.94 -12.1,-5 -25.97,-6.61 -5.14,-0.6 -8.53,-3.15 -9.54,-7.17 -1.05,-4.17 1.51,-7.45 8.6,-11.03 8.05,-4.05 13.36,-9.18 16.84,-16.26 2.36,-4.8 2.7,-6.7 2.7,-14.998 0,-8.364 -0.33,-10.177 -2.78,-15.161 -3.45,-7.02 -8.99,-12.123 -17.6,-16.201 -6.32,-2.997 -7.18,-3.138 -19.12,-3.138 -11.94,0 -12.8,0.141 -19.12,3.138 -8.61,4.078 -14.15,9.181 -17.6,16.201 -2.45,4.984 -2.78,6.797 -2.78,15.161 0,8.298 0.34,10.198 2.7,14.998 3.48,7.08 8.79,12.21 16.84,16.26 7.09,3.58 9.65,6.86 8.6,11.03 -1.01,4.02 -4.4,6.57 -9.54,7.17 -13.87,1.61 -18.01,2.67 -25.97,6.61 -9.53,4.72 -20.81,14.98 -25.64,23.31 -7.28,12.55 -9.98,27.84 -7.52,42.47 2.95,17.47 15.72,34.12 32.33,42.13 10.01,4.82 12.24,7.31 11.27,12.52 -0.79,4.2 -2.61,5.51 -12.57,9.05 -39.62,14.12 -72.68,47.51 -86.88,87.76 -5.8,16.44 -7.48,27.07 -7.55,47.69 -0.04,10.18 0.28,19.74 0.7,21.25 l 0.77,2.75 H 252 393.96 Z"
         transform="translate(387.21,272.99)" /></g><g
       id="g1"
       transform="matrix(0.26458333,0,0,0.26458333,-33.876586,144.50855)"
       style="stroke-width:10.3937;stroke-dasharray:none"><path
         fill="#000000"
         opacity="1"
         stroke="none"
         d="m 661.31445,-169.96569 c 12.11214,-19.00488 25.33167,-36.68559 39.99289,-54.41836 -11.79843,-5.00689 -23.92567,-6.60226 -35.0676,-12.6656 41.08351,-16.93952 82.16701,-33.87907 123.2505,-50.81854 0.47125,0.26652 0.94252,0.53312 1.41382,0.79968 -8.61145,40.95415 -17.22285,81.90827 -25.83425,122.86247 -0.49422,0.0857 -0.98838,0.17142 -1.48255,0.25712 -5.89021,-9.10704 -11.78038,-18.21404 -18.47382,-28.56299 -32.22452,51.44372 -52.2658,106.240959 -62.1436,165.483939 -7.62058,-0.89256 -14.71172,-2.33601 -21.62773,-4.71028 -16.79506,-5.76558 -32.50306,-13.53112 -46.52568,-24.59898 -2.41585,-1.90674 -2.8767,-3.44372 -2.0873,-6.24856 8.0221,-28.50322 19.40074,-55.613629 33.68952,-81.512259 4.73674,-8.5854 9.78244,-17.00045 14.8958,-25.86764 z"
         id="path2"
         style="fill:#ffffff;fill-opacity:1;stroke:#000000;stroke-width:10.3937;stroke-dasharray:none;stroke-opacity:1" /><path
         fill="#000000"
         opacity="1"
         stroke="none"
         d="m 340.3827,-169.96569 c -12.11214,-19.00488 -25.33167,-36.68559 -39.99289,-54.41836 11.79843,-5.00689 23.92567,-6.60226 35.0676,-12.6656 -41.08351,-16.93952 -82.16701,-33.87907 -123.2505,-50.81854 -0.47125,0.26652 -0.94252,0.53312 -1.41382,0.79968 8.61145,40.95415 17.22285,81.90827 25.83425,122.86247 0.49422,0.0857 0.98838,0.17142 1.48255,0.25712 5.89021,-9.10704 11.78038,-18.21404 18.47382,-28.56299 32.22452,51.44372 52.2658,106.24096 62.1436,165.48394 7.62058,-0.89256 14.71172,-2.33601 21.62773,-4.71028 16.79506,-5.76558 32.50306,-13.53112 46.52568,-24.59898 2.41585,-1.90674 2.8767,-3.44372 2.0873,-6.24856 -8.0221,-28.503222 -19.40074,-55.61363 -33.68952,-81.51226 -4.73674,-8.5854 -9.78244,-17.00045 -14.8958,-25.86764 z"
         id="path2-0"
         style="fill:#ffffff;fill-opacity:1;stroke:#000000;stroke-width:10.3937;stroke-dasharray:none;stroke-opacity:1" /><path
         fill="#000000"
         opacity="1"
         stroke="none"
         d="m 473.01114,-384.59252 c 8.78583,-13.49698 17.38276,-26.6846 26.71161,-40.99497 22.1142,34.1876 43.54187,67.31388 65.76703,101.67295 -13.04675,-2.14871 -23.89728,-6.35526 -35.48828,-9.05481 -0.53845,10.66116 1.89453,20.98987 0.83478,32.08041 -20.87689,-7.84265 -41.50293,-8.46036 -62.50333,-0.51928 -0.31696,-10.81263 0.64362,-20.84494 1.23615,-31.70713 -11.79993,3.18762 -22.90467,6.18744 -34.00943,9.18726 -0.33695,-0.40747 -0.67389,-0.81497 -1.01084,-1.22244 12.75781,-19.71085 25.51563,-39.42173 38.46231,-59.44199 z"
         id="path4"
         style="fill:#ffffff;fill-opacity:1;stroke:#000000;stroke-width:10.3937;stroke-dasharray:none;stroke-opacity:1" /></g></g></svg>
